<svg xmlns="http://www.w3.org/2000/svg" width="100%" viewBox="0 0 256 256" fill="none" style="max-width: 256px;">
  <defs>
    <linearGradient id="g" x1="48" y1="40" x2="208" y2="216" gradientUnits="userSpaceOnUse">
      <stop stop-color="#22C55E"/>
      <stop offset="1" stop-color="#14B8A6"/>
    </linearGradient>
  </defs>
  <circle cx="128" cy="128" r="104" fill="#0F172A" stroke="url(#g)" stroke-width="10"/>
  <circle cx="128" cy="108" r="34" fill="url(#g)"/>
  <path d="M89 152C89 132 107 118 128 118C149 118 167 132 167 152C167 176 149 193 128 193C107 193 89 176 89 152Z" fill="#22C55E" fill-opacity="0.18" stroke="url(#g)" stroke-width="8"/>
  <path d="M128 50V78" stroke="#E5E7EB" stroke-width="8" stroke-linecap="round"/>
  <path d="M128 178V206" stroke="#E5E7EB" stroke-width="8" stroke-linecap="round"/>
  <path d="M50 128H78" stroke="#E5E7EB" stroke-width="8" stroke-linecap="round"/>
  <path d="M178 128H206" stroke="#E5E7EB" stroke-width="8" stroke-linecap="round"/>
  <path d="M86 78L104 96" stroke="#E5E7EB" stroke-width="8" stroke-linecap="round"/>
  <path d="M152 96L170 78" stroke="#E5E7EB" stroke-width="8" stroke-linecap="round"/>
  <path d="M86 178L104 160" stroke="#E5E7EB" stroke-width="8" stroke-linecap="round"/>
  <path d="M152 160L170 178" stroke="#E5E7EB" stroke-width="8" stroke-linecap="round"/>
</svg>